<svg width="95" height="28" viewBox="0 0 95 28" fill="none" xmlns="http://www.w3.org/2000/svg">
<g clip-path="url(#clip0_2385_7928)">
<path d="M12.4 5.7H17.6C17.4667 8.03333 17.4 10.5667 17.4 13.3C17.4 16.0333 17.4667 18.6 17.6 21H9.99999L4.89999 9.5L5.29999 21H-0.200012C-0.0666789 18.2667 -1.22041e-05 15.7 -1.22041e-05 13.3C-1.22041e-05 10.9667 -0.0666789 8.43333 -0.200012 5.7H7.59999L12.8 17.5L12.4 5.7ZM21.6 8.3C20.7333 8.3 20.1 8.06667 19.7 7.6C19.2333 7.2 19 6.63333 19 5.9C19 5.23333 19.2333 4.66667 19.7 4.2C20.1 3.73333 20.7333 3.5 21.6 3.5C22.4667 3.5 23.1333 3.73333 23.6 4.2C24.0667 4.66667 24.3 5.23333 24.3 5.9C24.3 6.63333 24.0667 7.2 23.6 7.6C23.2 8.06667 22.5333 8.3 21.6 8.3ZM24.2 21.1H19.2C19.2667 18.8333 19.3 16.9333 19.3 15.4C19.3 13.6667 19.2667 11.7 19.2 9.5H24.2C24.1333 11.6333 24.1 13.6 24.1 15.4C24.1 17 24.1333 18.9 24.2 21.1ZM36.4 9.6V13.3C35.0667 13.2333 33.8667 13.1667 32.8 13.1V15.4C32.8 16.1333 32.9667 16.7333 33.3 17.2C33.6333 17.6 34.2333 17.8 35.1 17.8C35.4333 17.8 35.7333 17.7667 36 17.7C35.9333 18.2333 35.9 18.7667 35.9 19.3C35.9 19.5667 35.9333 20.1333 36 21C35.3333 21.1333 34.8 21.2 34.4 21.2C34 21.2667 33.4333 21.3 32.7 21.3C31.1 21.3 29.9333 20.9 29.2 20.1C28.5333 19.3 28.2 18.1667 28.2 16.7V13.2C27.5333 13.2 26.8667 13.2333 26.2 13.3V9.6C26.9333 9.6 27.5333 9.36667 28 8.9C28.5333 8.43333 28.8333 7.86667 28.9 7.2H34.7C33.9667 8.2 33.1667 9 32.3 9.6H36.4ZM47.1 9.3C47.9667 9.3 48.7667 9.56667 49.5 10.1C50.2333 10.6333 50.8333 11.3333 51.3 12.2C51.7 13.1333 51.9 14.1333 51.9 15.2C51.9 16.2 51.7 17.2 51.3 18.2C50.8333 19.1333 50.2333 19.8667 49.5 20.4C48.7667 21 47.9333 21.3 47 21.3C45.9333 21.3 45 21.0667 44.2 20.6C43.4 20.1333 42.8 19.4333 42.4 18.5C42.4 19.3 42.4333 20.5667 42.5 22.3C42.5667 24.0333 42.6 25.2667 42.6 26H37.8C37.9333 23.3333 38 20.5667 38 17.7C38 14.9 37.9333 12.1667 37.8 9.5H41.9L42.5 12.2C42.9 11.2 43.5 10.4667 44.3 10C45.1 9.53333 46.0333 9.3 47.1 9.3ZM44.8 17.5C45.4667 17.5 46 17.3 46.4 16.9C46.8 16.5 47 15.9667 47 15.3C47 14.5667 46.8333 13.9667 46.5 13.5C46.1 13.1 45.5333 12.9 44.8 12.9C44.0667 12.9 43.5 13.0667 43.1 13.4C42.7 13.8 42.5 14.4333 42.5 15.3C42.5 15.7667 42.6333 16.1667 42.9 16.5C43.1667 16.8333 43.4667 17.1 43.8 17.3C44.1333 17.4333 44.4667 17.5 44.8 17.5ZM55.7 8.3C54.7667 8.3 54.1 8.06667 53.7 7.6C53.2333 7.2 53 6.63333 53 5.9C53 5.23333 53.2333 4.66667 53.7 4.2C54.1 3.73333 54.7667 3.5 55.7 3.5C56.5 3.5 57.1333 3.73333 57.6 4.2C58.0667 4.66667 58.3 5.23333 58.3 5.9C58.3 6.63333 58.0667 7.2 57.6 7.6C57.2 8.06667 56.5667 8.3 55.7 8.3ZM58.2 21.1H53.2C53.3333 18.8333 53.4 16.9333 53.4 15.4C53.4 13.6667 53.3333 11.7 53.2 9.5H58.3C58.1667 11.6333 58.1 13.6 58.1 15.4C58.1 17 58.1333 18.9 58.2 21.1ZM65.1 15.3C65.1666 16.0333 65.4 16.6 65.8 17C66.2 17.4667 66.8333 17.7 67.7 17.7C68.1666 17.7 68.6 17.6 69 17.4C69.3333 17.2667 69.6666 17 70 16.6C71.2 17.0667 72.6 17.4667 74.2 17.8C73.7333 18.9333 72.9333 19.8 71.8 20.4C70.7333 21 69.3 21.3 67.5 21.3C65.1666 21.3 63.4333 20.7333 62.3 19.6C61.1667 18.5333 60.6 17.1 60.6 15.3C60.6 13.5 61.1667 12.0667 62.3 11C63.4333 9.86667 65.1666 9.3 67.5 9.3C69.3 9.3 70.7333 9.6 71.8 10.2C72.9333 10.8 73.7333 11.6667 74.2 12.8C72.9333 13.0667 71.5333 13.4667 70 14C69.6666 13.6 69.3333 13.3333 69 13.2C68.6 13 68.1666 12.9 67.7 12.9C66.8333 12.9 66.2 13.1333 65.8 13.6C65.4 14 65.1666 14.5667 65.1 15.3ZM83.6 9.5H89.8L84.5 14.3C86.3 16.8333 87.9667 19.1 89.5 21.1H83.9L82.8 19.3C82.1333 18.1667 81.6667 17.4 81.4 17L79.7 18.7V21.1H74.8C74.9333 18.3667 75 15.6333 75 12.9C75 10.1667 74.9333 7.4 74.8 4.6H79.7V13.6C81.0333 12.2 82.3333 10.8333 83.6 9.5Z" fill="white"/>
<path d="M92.9 21.2C92.2333 21.2 91.7 21 91.3 20.6C90.8333 20.1333 90.6 19.5667 90.6 18.9C90.6 18.3 90.8333 17.8 91.3 17.4C91.7 16.9333 92.2333 16.7 92.9 16.7C93.5 16.7 94 16.9333 94.4 17.4C94.8666 17.8 95.1 18.3 95.1 18.9C95.1 19.5667 94.8666 20.1333 94.4 20.6C94 21 93.5 21.2 92.9 21.2Z" fill="#335CFF"/>
</g>
<defs>
<clipPath id="clip0_2385_7928">
<rect width="95" height="28" fill="white"/>
</clipPath>
</defs>
</svg>
